# xmcd CD database file
#
# Track frame offsets:
#	150
#	42707
#	63712
#	98641
#	116436
#	154310
#	184833
#
# Disc length: 2804 seconds
#
# Revision: 0
# Processed by: cddbd v1.5.2PL0 Copyright (c) Steve Scherf et al.
# Submitted via: CDex 1.70beta2
#
DISCID=600af207
DTITLE=Masqualero - Aero
DYEAR=1988
DGENRE=New Age
TTITLE0=Aero
TTITLE1=Science
TTITLE2=Venise
TTITLE3=Printer
TTITLE4=Balet
TTITLE5=Return
TTITLE6=Bee Gee
EXTD=YEAR: 1988
EXTT0=
EXTT1=
EXTT2=
EXTT3=
EXTT4=
EXTT5=
EXTT6=
PLAYORDER=
